<?xml version="1.0" encoding="utf-8"?>
<!-- Svg Vector Icons : http://www.onlinewebfonts.com/icon -->
<!DOCTYPE svg PUBLIC "-//W3C//DTD SVG 1.1//EN" "http://www.w3.org/Graphics/SVG/1.1/DTD/svg11.dtd">
<svg version="1.1" xmlns="http://www.w3.org/2000/svg" xmlns:xlink="http://www.w3.org/1999/xlink" x="0px" y="0px" viewBox="0 0 1000 1000" enable-background="new 0 0 1000 1000" xml:space="preserve">
<metadata> Svg Vector Icons : http://www.onlinewebfonts.com/icon </metadata>
<g><path d="M956.8,408.5H591.3V43.2c0-18.3-15-33.2-33.3-33.2H441.9c-18.3,0-33.7,14.9-33.7,33.2v365.2h-365c-18.3,0-33.2,14.9-33.2,33.2v117c0,18.3,14.9,33,33.2,33h365v365.2c0,18.3,14.4,33.2,32.8,33.2h117.1c18.3,0,33.1-14.9,33.1-33.2V591.6h365.5c18.3,0,33.2-15.1,33.2-33.5V441.7C990,423.3,975.1,408.5,956.8,408.5z"/></g>
</svg>