<svg id="Capa_1" enable-background="new 0 0 511.9 511.9" height="512" viewBox="0 0 511.9 511.9" width="512" xmlns="http://www.w3.org/2000/svg"><g><path d="m467.62 43.132c-57.512-57.51-151.088-57.51-208.6 0-23.846 23.846-38.456 54.127-42.251 87.57-3.23 28.464 1.973 57.472 14.703 82.898l-230.325 230.326 65.679 65.679 26.754-26.754 29.049 29.049 62.338-62.338-29.049-29.049 21.375-21.375 29.049 29.049 62.338-62.338-29.049-29.049 57.52-57.521c25.427 12.729 54.435 17.934 82.898 14.703 33.443-3.795 63.725-18.405 87.57-42.251 57.512-57.51 57.512-151.088.001-208.599zm-21.213 187.387c-38.449 38.45-97.701 45.59-144.089 17.363l-10.069-6.127-95.044 95.045 29.049 29.049-19.912 19.912-29.049-29.049-63.802 63.801 29.049 29.049-19.911 19.912-29.049-29.049-26.754 26.754-23.252-23.253 225.423-225.423-6.127-10.069c-28.227-46.388-21.086-105.639 17.363-144.089 45.814-45.813 120.359-45.813 166.174 0 45.814 45.815 45.814 120.36 0 166.174z"/><path d="m357.071 84.191c-19.158 19.158-19.158 50.331 0 69.491 9.58 9.578 22.162 14.368 34.745 14.368s25.166-4.79 34.745-14.369h.001c19.157-19.159 19.157-50.332-.001-69.49s-50.332-19.157-69.49 0zm48.278 48.277c-7.463 7.463-19.604 7.461-27.063 0-7.462-7.462-7.462-19.603-.001-27.063 3.731-3.731 8.631-5.597 13.532-5.597 4.9 0 9.802 1.865 13.532 5.596 7.46 7.462 7.46 19.602 0 27.064z"/></g></svg>