<svg xmlns="http://www.w3.org/2000/svg" width="380" height="27" viewBox="0 0 380 27">
  <g fill="#FFFFFF">
    <polygon points="28 19.302 28 26 0 26 0 0 28 0 28 6.786 8.05 6.786 8.05 9.519 26.775 9.519 26.775 16.217 8.05 16.217 8.05 19.302"/>
    <polygon points="141 0 125.34 17.363 125.34 26 117.107 26 117.107 17.363 101 0 111.47 0 121.313 10.576 130.53 0"/>
    <polygon points="32 0 40.491 0 48.544 9.695 56.684 0 65 0 65 26 57.122 26 57.122 9.871 48.631 19.742 40.141 9.871 40.141 26 32.175 26 32.175 0"/>
    <polygon points="144 0 152.152 0 163.848 14.807 163.848 0 172 0 172 26 163.848 26 152.152 11.281 152.152 26 144 26"/>
    <path d="M98.5239362 3.52542373C95.6276596 1.14576271 91.8537234-.88578059e-15 87.2898936-.88578059e-15L70-.88578059e-15 70 6.78644068 87.3776596 6.78644068C89.5718085 6.78644068 91.4148936 7.40338983 92.8191489 8.54915254 94.2234043 9.69491525 95.0132979 11.2813559 95.0132979 13.1322034 95.0132979 14.9830508 94.3111702 16.4813559 92.8191489 17.6271186 91.4148936 18.7728814 89.5718085 19.3016949 87.2898936 19.3016949L70 19.3016949 70 26 87.3776596 26C91.8537234 26 95.6276596 24.7661017 98.5239362 22.2101695 101.507979 19.6542373 103 16.5694915 103 12.779661 102.912234 8.90169492 101.507979 5.90508475 98.5239362 3.52542373zM350.12963 16C350.12963 15.1666667 350.87037 14.4166667 351.888889 14.4166667 352.259259 14.4166667 352.537037 14.5 352.814815 14.6666667 352.907407 14.25 353 13.9166667 353 13.5 353 11 350.777778 9 348 9 345.222222 9 343 11 343 13.5 343 16 345.222222 18 348 18 349.018519 18 350.037037 17.6666667 350.87037 17.1666667 350.314815 16.9166667 350.12963 16.5 350.12963 16zM345 13C344.5 13 344 12.5833333 344 12 344 11.5 344.416667 11 345 11 345.5 11 346 11.4166667 346 12 345.916667 12.5833333 345.5 13 345 13z"/>
    <polygon points="183 0 189.074 0 195.412 19.39 195.5 19.39 201.926 0 208 0 198.581 26 192.243 26"/>
    <polygon points="211 0 217 0 217 26 211 26"/>
    <path d="M234.279697,0 C238.098387,0 241.135982,1.23934426 243.739635,3.18688525 L240.875617,6.99344262 C239.05306,5.66557377 236.970138,4.78032787 234.453274,4.78032787 C229.67991,4.78032787 226.642316,8.40983607 226.642316,13.3672131 C226.642316,18.7672131 229.593122,22.2196721 234.453274,22.2196721 C236.189042,22.2196721 237.751234,21.7770492 238.879483,21.0688525 L238.879483,15.8459016 L233.151447,15.8459016 L233.151447,12.0393443 L244,12.0393443 L244,23.9901639 C241.483136,25.8491803 238.098387,27 234.279697,27 C226.208374,27 221.001068,21.3344262 221.001068,13.3672131 C220.91428,5.84262295 226.121585,0 234.279697,0 Z"/>
    <polygon points="249 0 255 0 255 26 249 26"/>
    <polygon points="259 0 264.79 0 264.79 21.064 278 21.064 278 26 259 26"/>
    <path d="M289.353147,-1.88737914e-15 L295.646853,-1.88737914e-15 L305,26 L298.968531,26 L297.307692,21.1525424 L287.604895,21.1525424 L286.031469,26 L280,26 L289.353147,-1.88737914e-15 Z M289,17 L296,17 L292.5,6 L292.4125,6 L289,17 Z"/>
    <polygon points="308 0 313.325 0 324.762 17.098 324.762 0 330 0 330 26 324.762 26 313.325 8.99 313.325 26 308 26"/>
    <polygon points="361 0 379.825 0 379.825 4.936 366.604 4.936 366.604 10.664 378.424 10.664 378.424 14.983 366.604 14.983 366.604 21.064 380 21.064 380 26 361.088 26 361.088 0"/>
    <path d="M348.095238,26 C340.849206,26 335,20.1933333 335,13 C335,5.80666667 340.849206,6.41153797e-15 348.095238,6.41153797e-15 C351.412698,6.41153797e-15 354.555556,1.21333333 357,3.46666667 L353.769841,7.62666667 C352.285714,6.06666667 350.190476,5.2 348.007937,5.2 C343.642857,5.2 340.150794,8.75333333 340.150794,13 C340.150794,17.2466667 343.730159,20.8 348.007937,20.8 C350.190476,20.8 352.285714,19.9333333 353.769841,18.3733333 L356.912698,22.5333333 C354.555556,24.7866667 351.412698,26 348.095238,26 Z"/>
  </g>
</svg>
